<svg xmlns="http://www.w3.org/2000/svg" width="38" height="36" fill="none" xmlns:v="https://vecta.io/nano"><path d="M17.861 7.367c2.825 0 5.486 1.252 7.437 3.21v.006c0-.94.632-1.651 1.507-1.651h.222c1.379 0 1.656 1.301 1.656 1.711l.006 14.609c-.096.957.989 1.452 1.591.837 2.341-2.408 5.148-12.394-1.458-18.175-6.16-5.396-14.429-4.505-18.825-1.475-4.672 3.228-7.659 10.359-4.758 17.06 3.168 7.306 12.225 9.486 17.616 7.312 2.729-1.102 3.987 2.582 1.15 3.788-4.275 1.823-16.187 1.637-21.751-7.998-3.759-6.508-3.56-17.958 6.414-23.889C16.289-1.829 26.348-.571 32.411 5.76c6.336 6.624 5.97 19.018-.216 23.836-2.802 2.191-6.962.06-6.932-3.132l-.031-1.041c-1.951 1.932-4.546 3.065-7.371 3.065-5.588 0-10.508-4.921-10.508-10.503 0-5.642 4.92-10.616 10.508-10.616v-.002zm7.029 10.214c-.212-4.09-3.247-6.552-6.914-6.552h-.139c-4.227 0-6.576 3.33-6.576 7.105 0 4.233 2.836 6.906 6.558 6.906 4.155 0 6.882-3.04 7.081-6.636l-.01-.823z" fill="#000"/></svg>