<svg xmlns="http://www.w3.org/2000/svg" width="30" height="31" fill="none" xmlns:v="https://vecta.io/nano"><path d="M27.589.26H2.411A2.41 2.41 0 0 0 0 2.671v25.177c0 1.331 1.08 2.411 2.411 2.411h25.177c1.331 0 2.411-1.08 2.411-2.411V2.671C30 1.34 28.92.26 27.589.26zm0 27.6L2.4 27.849 2.411 2.66l25.189.011-.011 25.189zM4.448 11.506h4.451v14.317H4.448V11.506zm2.228-1.957c1.421 0 2.58-1.155 2.58-2.58a2.58 2.58 0 0 0-.756-1.824 2.58 2.58 0 0 0-1.824-.756 2.58 2.58 0 0 0-1.824.756 2.58 2.58 0 0 0-.756 1.824c-.004 1.425 1.151 2.58 2.58 2.58zm9.461 9.191c0-1.867.356-3.675 2.67-3.675 2.28 0 2.314 2.134 2.314 3.795v6.964h4.447v-7.852c0-3.855-.832-6.821-5.336-6.821-2.164 0-3.615 1.189-4.211 2.314h-.06v-1.957h-4.271v14.317h4.447V18.74z" fill="#fff" fill-opacity=".9"/></svg>