<svg xmlns="http://www.w3.org/2000/svg" width="30" height="30" fill="none" xmlns:v="https://vecta.io/nano"><path d="M15 0L8.818.087C7.216.166 6.132.414 5.176.786c-1.001.378-1.907.97-2.656 1.734-.766.747-1.358 1.654-1.734 2.656-.371.956-.62 2.04-.699 3.643L0 15l.087 6.182c.079 1.598.327 2.686.699 3.643.378 1.001.97 1.907 1.734 2.656.747.766 1.654 1.358 2.656 1.734.956.367 2.045.62 3.643.698L15 30l6.182-.087c1.598-.079 2.686-.333 3.643-.698 1.001-.378 1.907-.969 2.656-1.734.767-.746 1.359-1.653 1.734-2.656.367-.956.62-2.045.698-3.643L30 15l-.087-6.182c-.079-1.598-.333-2.692-.698-3.643-.378-1.001-.969-1.907-1.734-2.656-.746-.767-1.653-1.359-2.656-1.734-.956-.371-2.045-.62-3.643-.699L15 0zm0 2.7l6.065.087c1.46.068 2.255.312 2.783.519a4.68 4.68 0 0 1 1.729 1.122c.497.484.879 1.073 1.118 1.724.206.528.45 1.323.518 2.783l.087 6.065-.093 6.066c-.079 1.46-.323 2.255-.528 2.783-.284.704-.601 1.196-1.124 1.729a4.73 4.73 0 0 1-1.729 1.118c-.521.206-1.328.45-2.793.519l-6.075.087c-4.015 0-4.483-.02-6.076-.093-1.46-.079-2.265-.323-2.793-.528-.713-.284-1.201-.601-1.724-1.124s-.864-1.03-1.122-1.729c-.21-.521-.45-1.328-.528-2.793l-.079-6.056.079-6.075c.078-1.465.318-2.27.528-2.793.259-.714.595-1.201 1.122-1.729.522-.522 1.012-.86 1.724-1.124.528-.205 1.314-.449 2.779-.522l6.069-.078L15 2.7zm0 4.601c-1.011 0-2.013.199-2.947.585s-1.784.954-2.499 1.669a7.7 7.7 0 0 0-2.255 5.446 7.7 7.7 0 0 0 2.255 5.446 7.7 7.7 0 0 0 2.499 1.669c.934.387 1.936.586 2.947.585s2.013-.198 2.947-.585a7.7 7.7 0 0 0 2.499-1.669c.715-.715 1.282-1.564 1.669-2.499s.586-1.936.585-2.947-.199-2.013-.585-2.947-.954-1.783-1.669-2.499-1.564-1.282-2.499-1.669-1.936-.586-2.947-.585zm0 12.701a5 5 0 1 1 0-10.001 5 5 0 1 1 0 10.001zm9.811-13.009c0 .478-.191.936-.529 1.274s-.796.527-1.274.527a1.8 1.8 0 0 1-1.272-.527 1.8 1.8 0 0 1-.527-1.272 1.8 1.8 0 0 1 .527-1.272 1.8 1.8 0 0 1 1.272-.527c.991 0 1.803.806 1.803 1.797z" fill="#fff" fill-opacity=".9"/></svg>