<svg xmlns="http://www.w3.org/2000/svg" width="35" height="35" fill="none" xmlns:v="https://vecta.io/nano"><path d="M17.484 0C7.824-.004 0 7.816 0 17.469c0 7.633 4.895 14.121 11.711 16.504.918.23.777-.422.777-.867v-3.027c-5.301.621-5.516-2.887-5.871-3.473-.719-1.227-2.418-1.539-1.91-2.125 1.207-.621 2.438.156 3.863 2.262 1.031 1.527 3.043 1.27 4.062 1.016a4.93 4.93 0 0 1 1.356-2.375c-5.492-.984-7.781-4.336-7.781-8.32 0-1.934.637-3.711 1.887-5.145-.797-2.363.074-4.387.191-4.688 2.27-.203 4.629 1.625 4.813 1.77 1.289-.348 2.762-.531 4.41-.531 1.656 0 3.133.191 4.434.543.441-.336 2.629-1.906 4.738-1.715.113.301.965 2.277.215 4.609 1.266 1.438 1.91 3.23 1.91 5.168 0 3.992-2.305 7.348-7.812 8.316.472.464.846 1.017 1.102 1.628a4.98 4.98 0 0 1 .386 1.927v4.395c.031.352 0 .699.586.699 6.918-2.332 11.898-8.867 11.898-16.566C34.965 7.816 27.137 0 17.484 0z" fill="#000"/></svg>