<svg xmlns="http://www.w3.org/2000/svg" width="86" height="100" fill="none" xmlns:v="https://vecta.io/nano"><path d="M42.739 99.814c-1.327 0-2.566-.367-3.716-1.009l-11.769-7.244c-1.77-1.009-.885-1.375-.354-1.559 2.389-.825 2.832-1.009 5.309-2.476.266-.183.619-.092.885.092l9.026 5.594c.354.183.796.183 1.062 0L78.487 72.03c.354-.183.531-.55.531-1.009V28.748c0-.458-.177-.825-.531-1.009L43.181 6.648c-.354-.183-.796-.183-1.062 0L6.813 27.739c-.354.183-.531.642-.531 1.009v42.273c0 .367.177.825.531 1.009l9.645 5.777c5.221 2.751 8.495-.459 8.495-3.668V32.416c0-.55.442-1.1 1.062-1.1h4.513c.531 0 1.062.459 1.062 1.1v41.723c0 7.244-3.805 11.462-10.441 11.462-2.035 0-3.628 0-8.141-2.293l-9.291-5.502C1.416 76.431 0 73.864 0 71.113V28.839c0-2.751 1.416-5.319 3.716-6.694L39.022.963c2.212-1.284 5.221-1.284 7.433 0l35.306 21.182c2.301 1.376 3.716 3.943 3.716 6.694v42.273c0 2.751-1.416 5.319-3.716 6.694L46.455 98.989a8.79 8.79 0 0 1-3.716.825zm10.884-29.069c-15.485 0-18.67-7.336-18.67-13.571 0-.55.442-1.1 1.062-1.1h4.601c.531 0 .973.367.973.917.708 4.86 2.743 7.244 12.123 7.244 7.433 0 10.618-1.742 10.618-5.869 0-2.384-.885-4.126-12.476-5.319-9.645-1.009-15.662-3.209-15.662-11.187 0-7.428 6.017-11.829 16.104-11.829 11.326 0 16.901 4.035 17.609 12.838 0 .275-.088.55-.265.825-.177.183-.442.367-.708.367h-4.601c-.442 0-.885-.367-.973-.825-1.062-5.043-3.805-6.694-11.061-6.694-8.141 0-9.114 2.934-9.114 5.135 0 2.659 1.15 3.485 12.123 4.952 10.884 1.467 16.016 3.576 16.016 11.462-.089 8.069-6.459 12.654-17.697 12.654z" fill="#539e43"/></svg>