<svg xmlns="http://www.w3.org/2000/svg" viewBox="0 0 700 700" xmlns:v="https://vecta.io/nano"><path d="M178 255.9l-35.5-35.3c-6.6-6.6-17.3-6.4-23.9.2s-6.6 17.4 0 24l40.5 38.1c3.2 3.2 7.5 2.4 12 2.4h33c-23.5 29.4-38.9 64.8-44.6 100.1H102c-9.3 0-16.9 8.3-16.9 17.7 0 9.3 7.6 17.7 16.9 17.7h55c.3 29.4 7.7 58.9 20.7 82.4h-12.3c-4.5 0-8.8 2.6-12 5.8l-40.5 41c-6.6 6.6-6.6 17.5 0 24.1 3.3 3.3 7.6 5 11.9 5s8.7-1.6 12-5l35.6-35.6h27.3c33.3 41.2 85.5 68 138.5 71V255.9H178zm420.1 129.5h-58.7c-7.3-35.3-26.1-70.7-48.1-100.1H529c4.5 0 8.8.8 12-2.4l40.5-39.3c6.6-6.6 6.6-16.7 0-23.3s-17.3-6.7-23.9 0L522 255.9H361.8v353.5c53-3.4 104.3-35.5 137.6-70.9h28.3l35.6 35.7c3.3 3.3 7.6 5 12 5 4.3 0 8.6-1.6 11.9-4.9 6.6-6.6 6.6-17.3 0-23.9L546.7 509c-3.2-3.2-7.5-5.7-12-5.7h-13c13.2-23.6 20.7-53 21-82.4h55.4c9.3 0 16.9-8.3 16.9-17.7 0-9.5-7.6-17.8-16.9-17.8h0zM240.6 232.3h218.8c0-41.2-20.5-72.2-51.2-91.6l22.1-21.6c6.6-6.6 6.6-17.1 0-23.7s-17.3-6.5-23.9.1l-31.9 32c-7.9-1.8-16.1-2.8-24.5-2.8s-16.6 1.1-24.5 2.9l-31.9-31.9c-6.6-6.6-17.3-6.6-23.9 0s-6.6 17.3 0 23.9l22.1 21.2c-30.8 19.3-51.2 50.3-51.2 91.5h0z"/></svg>