<svg xmlns="http://www.w3.org/2000/svg" width="103" height="100" fill="none" xmlns:v="https://vecta.io/nano"><path d="M94.856 77.343c-5.603-.138-9.946.416-13.588 1.94-1.051.416-2.732.416-2.872 1.732.561.555.631 1.455 1.121 2.217.841 1.385 2.311 3.257 3.642 4.227 1.471 1.108 2.942 2.217 4.482 3.187 2.732 1.663 5.814 2.633 8.475 4.296 1.541.969 3.081 2.217 4.623 3.257.77.554 1.26 1.455 2.241 1.801v-.208c-.49-.624-.63-1.524-1.12-2.217-.7-.693-1.401-1.317-2.102-2.01-2.031-2.702-4.553-5.058-7.284-6.998-2.241-1.524-7.144-3.603-8.055-6.167l-.14-.138c1.541-.139 3.362-.693 4.833-1.109 2.381-.624 4.553-.485 7.004-1.108 1.12-.277 2.241-.624 3.362-.97v-.623c-1.26-1.248-2.171-2.91-3.502-4.088-3.572-3.049-7.494-6.028-11.557-8.522-2.171-1.386-4.973-2.287-7.284-3.464-.84-.416-2.241-.624-2.731-1.317-1.261-1.524-1.962-3.533-2.872-5.335-2.031-3.811-3.992-8.037-5.743-12.056-1.26-2.702-2.031-5.405-3.572-7.899-7.214-11.779-15.059-18.915-27.105-25.913-2.592-1.455-5.673-2.079-8.965-2.841l-5.253-.277c-1.12-.485-2.241-1.801-3.222-2.425C13.68 1.821 3.384-3.583.442 3.554c-1.891 4.504 2.802 8.938 4.412 11.224 1.191 1.594 2.732 3.395 3.572 5.196.49 1.177.63 2.425 1.12 3.672 1.121 3.048 2.171 6.444 3.642 9.284.771 1.455 1.611 2.979 2.592 4.295.56.762 1.541 1.109 1.751 2.356-.98 1.386-1.051 3.464-1.611 5.197-2.521 7.829-1.541 17.529 2.031 23.28 1.12 1.732 3.782 5.543 7.354 4.088 3.152-1.247 2.451-5.196 3.362-8.661.21-.832.07-1.386.49-1.94v.139l2.871 5.751c2.172 3.395 5.953 6.929 9.105 9.285 1.682 1.247 3.012 3.395 5.113 4.157v-.208h-.14c-.42-.624-1.051-.901-1.611-1.386-1.261-1.247-2.662-2.771-3.642-4.157-2.941-3.88-5.533-8.176-7.844-12.61-1.12-2.148-2.101-4.504-3.012-6.651-.421-.832-.421-2.079-1.121-2.494-1.051 1.524-2.591 2.841-3.362 4.711-1.33 2.979-1.471 6.651-1.961 10.462-.28.07-.14 0-.28.139-2.241-.555-3.012-2.84-3.852-4.781-2.101-4.919-2.451-12.818-.63-18.499.49-1.455 2.592-6.028 1.751-7.414-.42-1.317-1.821-2.079-2.592-3.118-.91-1.317-1.891-2.979-2.521-4.434-1.681-3.88-2.522-8.176-4.343-12.056-.841-1.802-2.311-3.672-3.502-5.335-1.33-1.871-2.802-3.187-3.852-5.405-.35-.762-.841-2.009-.28-2.841.14-.554.42-.762.981-.901.91-.762 3.502.208 4.412.623 2.592 1.039 4.763 2.009 6.934 3.464.98.693 2.031 2.009 3.291 2.356h1.471c2.241.485 4.763.139 6.864.762 3.712 1.178 7.074 2.91 10.086 4.781 9.175 5.751 16.739 13.927 21.852 23.696.841 1.593 1.19 3.049 1.961 4.711 1.471 3.395 3.292 6.859 4.763 10.185 1.471 3.256 2.871 6.582 4.973 9.285 1.051 1.454 5.253 2.217 7.144 2.979 1.401.623 3.572 1.178 4.833 1.94 2.381 1.454 4.763 3.118 7.004 4.711 1.121.831 4.622 2.564 4.833 3.949h0z" fill="#00546b"/></svg>