<svg xmlns="http://www.w3.org/2000/svg" width="175" height="387" fill="#da4648" fill-rule="evenodd" xmlns:v="https://vecta.io/nano"><path d="M86.72 304.739c-22.574 0-40.017-3.391-48.405-5.412-5.736-1.382-10.342-2.812-13.841-4.281l11.187 19.113 4.376 59.719c0 6.695 21.268 12.122 47.503 12.122s47.503-5.427 47.503-12.122l3.465-60.369 10.585-18.519c-3.514 1.489-8.161 2.938-13.969 4.337-8.388 2.021-25.831 5.412-48.404 5.412zm62.736-194.328C132.888 112.725 110.899 114 87.54 114s-45.348-1.275-61.916-3.589c-8.207-1.146-14.7-2.498-19.299-4.016-1.097-.363-2.956-.982-4.745-1.968L11.845 198.9c.477-1.627 1.008-3.252 1.597-4.871 1.205-3.318 2.599-6.562 4.181-9.731s3.306-6.163 5.169-8.984 3.845-5.417 5.946-7.79 4.258-4.412 6.472-6.122 4.447-3.044 6.702-4.006 4.49-1.444 6.703-1.444c2.549 0 5.015.697 7.397 2.091s4.607 3.65 6.681 6.769c.476.697.778 1.402.903 2.115a11.53 11.53 0 0 1 .189 2.016c0 1.493-.357 2.672-1.071 3.534s-1.562 1.294-2.542 1.294c-.898 0-1.731-.473-2.501-1.418s-1.632-2.298-2.585-4.057c-.897-1.593-1.884-2.745-2.962-3.459a6.24 6.24 0 0 0-3.509-1.07c-1.961 0-4.055.813-6.282 2.439s-4.434 3.774-6.618 6.445-4.28 5.724-6.283 9.159-3.776 6.951-5.317 10.551-2.765 7.153-3.676 10.653-1.366 6.644-1.366 9.431c0 .93.064 1.885.189 2.862s.364 1.867.715 2.664.826 1.451 1.428 1.964 1.366.772 2.29.772c1.037 0 2.213-.348 3.531-1.045s2.682-1.609 4.096-2.736 2.837-2.406 4.266-3.834a68.31 68.31 0 0 0 3.992-4.33c1.232-1.459 2.325-2.862 3.277-4.205s1.667-2.514 2.144-3.51l3.908-11.697c.476-1.26 1.099-2.156 1.87-2.687s1.562-.797 2.375-.797c.391 0 .783.067 1.176.199s.742.341 1.051.622.553.647.735 1.096.273.97.273 1.567c0 1.593-.14 3.085-.42 4.48s-.637 2.754-1.072 4.082-.918 2.662-1.45 4.006-1.051 2.746-1.554 4.207c-.112.166-.315.687-.61 1.566l-1.071 3.311-1.366 4.455-1.512 5.027-1.492 5.028-1.282 4.455-.946 3.334-.462 1.594c-.14.529-.365 1.119-.672 1.765s-.672 1.262-1.093 1.842-.882 1.063-1.387 1.443-1.022.573-1.555.573c-.896 0-1.548-.299-1.953-.895s-.609-1.693-.609-3.285v-.697a7.07 7.07 0 0 1 .041-.746c.027-.532.238-1.528.631-2.989l1.408-4.951 1.765-5.725 1.702-5.3c-1.487 1.66-3.096 3.31-4.833 4.953s-3.517 3.119-5.337 4.429-3.657 2.381-5.505 3.211-3.628 1.245-5.337 1.245c-1.961 0-3.649-.432-5.065-1.295-.255-.157-.496-.332-.736-.506l5.712 59.888c1.487 3.727 29.481 12.884 66.391 12.884 36.927 0 64.932-9.166 66.393-12.89l8.205-71.202-1.972 1.822c-2.354 2.189-4.575 4.072-6.662 5.648s-4.125 2.797-6.114 3.658-4.119 1.295-6.388 1.295c-2.129 0-3.776-.465-4.938-1.394s-1.744-2.205-1.744-3.832v-.373c0-.116.014-.258.043-.424.111-.994.547-2.141 1.303-3.434s1.666-2.638 2.73-4.031 2.199-2.805 3.404-4.232l3.342-4.057c1.022-1.275 1.869-2.445 2.541-3.508s1.01-1.924 1.01-2.588c0-.398-.141-.713-.42-.947s-.744-.348-1.387-.348c-1.121 0-2.277.291-3.466.871s-2.37 1.362-3.532 2.34-2.297 2.1-3.404 3.36-2.142 2.572-3.109 3.931-1.848 2.731-2.647 4.108-1.478 2.646-2.039 3.806l-.715 1.543-1.008 2.241-1.156 2.562-1.113 2.49-.902 2.09-.569 1.27c-.14.298-.371.861-.693 1.691l-1.113 2.912-1.325 3.51-1.302 3.484-1.071 2.887c-.308.828-.506 1.393-.59 1.692a18.17 18.17 0 0 1-.986 2.44c-.379.762-.812 1.434-1.303 2.016a5.96 5.96 0 0 1-1.681 1.392c-.631.35-1.338.523-2.121.523-1.01 0-1.842-.242-2.502-.722s-.987-1.403-.987-2.762c0-.664.084-1.344.252-2.04a18.19 18.19 0 0 1 .631-2.066c.252-.682.512-1.344.778-1.991l.734-1.867 4.623-9.98 4.518-9.904.869-2.028-.26.26c-1.822 1.76-3.635 3.31-5.442 4.654s-3.601 2.414-5.378 3.211-3.51 1.194-5.192 1.194c-1.148 0-2.107-.182-2.877-.547s-1.386-.864-1.849-1.493-.793-1.377-.989-2.24c-.066-.295-.107-.603-.15-.91a40.99 40.99 0 0 1-1.488 1.11c-1.737 1.226-3.446 2.214-5.127 2.96s-3.194 1.12-4.537 1.12-2.438-.448-3.28-1.344-1.259-2.422-1.259-4.578c0-1.528.224-3.303.671-5.326-.728 1.294-1.638 2.605-2.73 3.931s-2.34 2.539-3.74 3.635-2.971 1.982-4.707 2.662-3.629 1.02-5.673 1.02c-.925 0-1.814-.116-2.669-.348s-1.604-.631-2.248-1.195-1.162-1.319-1.555-2.264-.588-2.133-.588-3.559c0-.033.056-.539.168-1.519s.469-2.522 1.072-4.629 1.534-4.836 2.793-8.188 3.041-7.416 5.338-12.193c.588-1.262 1.268-2.166 2.037-2.713s1.604-.822 2.5-.822a4.61 4.61 0 0 1 1.219.174 3.94 3.94 0 0 1 1.178.548 2.96 2.96 0 0 1 .883.946 2.57 2.57 0 0 1 .336 1.318c0 .332-.043.649-.127.945-.141.567-.442 1.303-.902 2.215l-1.62 3.137-1.953 3.809c-.687 1.359-1.324 2.769-1.912 4.23s-1.093 2.945-1.513 4.455-.659 2.979-.714 4.405a3.28 3.28 0 0 0 .42 1.642c.28.498.743.746 1.387.746 1.82 0 3.557-.598 5.211-1.791s3.178-2.68 4.58-4.455 2.668-3.684 3.803-5.725 2.08-3.906 2.836-5.599c.533-1.127 1.002-2.34 1.408-3.633s.848-2.488 1.324-3.584 1.022-2.008 1.639-2.738a2.9 2.9 0 0 1 2.31-1.095c1.01 0 1.807.382 2.397 1.145s.881 1.676.881 2.737c0 .597-.188 1.42-.567 2.465a70.18 70.18 0 0 1-1.429 3.584l-1.869 4.304c-.672 1.528-1.297 3.078-1.869 4.655a46.12 46.12 0 0 0-1.43 4.629c-.379 1.509-.567 2.912-.567 4.205 0 1.195.616 1.793 1.848 1.793.869 0 1.947-.299 3.236-.897s2.641-1.435 4.055-2.514a30.18 30.18 0 0 0 1.062-.845c.395-1.629.858-3.135 1.397-4.504l2.984-7.715 2.774-7.019 12.732-32.104c.504-1.294 1.184-2.207 2.037-2.738s1.717-.796 2.586-.796 1.658.282 2.373.846 1.073 1.477 1.073 2.738c0 .597-.12 1.228-.358 1.891s-.539 1.377-.904 2.14l-2.5 5.724-3.11 7.367-3.404 8.287-3.404 8.387-3.11 7.74-2.5 6.346c-.308.763-.609 1.652-.902 2.664s-.441 1.916-.441 2.713c0 .496.084.894.252 1.193s.49.449.966.449c.588 0 1.323-.207 2.206-.623s1.834-.963 2.857-1.643a45.66 45.66 0 0 0 3.193-2.339 99.15 99.15 0 0 0 3.299-2.737 89.62 89.62 0 0 0 3.131-2.838c.994-.945 1.885-1.816 2.67-2.613.184-.191.404-.326.646-.427.473-1.413.905-2.797 1.286-4.151l.925-2.539c.391-1.096.84-2.174 1.344-3.236s1.073-1.983 1.701-2.762 1.311-1.17 2.039-1.17c1.121 0 1.934.258 2.438.771s.756 1.27.756 2.266c0 .199-.028.514-.084.945s-.125.889-.209 1.37a28.06 28.06 0 0 1-.274 1.369c-.099.431-.189.746-.273.945a56.64 56.64 0 0 1 3.361-3.359c1.205-1.112 2.451-2.118 3.74-3.012s2.606-1.625 3.952-2.192 2.689-.845 4.033-.845c.924 0 1.842.133 2.752.399s1.724.655 2.437 1.169 1.297 1.162 1.744 1.942.672 1.683.672 2.712c0 1.362-.342 2.813-1.029 4.356s-1.547 3.094-2.584 4.652a58.26 58.26 0 0 1-3.361 4.555l-3.383 4.031-2.649 3.086c-.712.848-1.086 1.42-1.113 1.719 0 .398.127.721.379.971s.672.373 1.26.373c.476 0 1.178-.266 2.101-.797s2.221-1.451 3.887-2.762 3.783-3.07 6.346-5.277l6.135-5.366 11.114-102.929c-1.79.988-3.652 1.608-4.75 1.971-4.598 1.518-11.091 2.87-19.299 4.016zM87.474 85.99c-48.049 0-87 5.372-87 12s38.951 12 87 12 87-5.372 87-12-38.951-12-87-12zm34.738 15.507c0 1.555-4.629 2.816-10.34 2.816s-10.339-1.261-10.339-2.816 4.629-2.817 10.339-2.817 10.34 1.261 10.34 2.817z"/><path d="M103.627 100.252c-.051.082-.078.165-.078.25 0 1.007 3.727 1.822 8.323 1.822s8.323-.815 8.323-1.822l10.871-44.078 43.233-45.645.041-.043c.915-1.035-.942-4.238-4.023-6.985s-6.408-3.677-7.442-2.631l-.023.024-46.127 48.538-13.098 50.57z"/></svg>