<svg xmlns="http://www.w3.org/2000/svg" width="42" height="98" fill="none" xmlns:v="https://vecta.io/nano"><path d="M41.068 39.063C36.183 16.438 25.989 10.414 23.403 6.155 21.997 3.839 20.563.318 20.563.318c-.14 2.007-.389 3.278-2.02 4.803C15.278 8.177 1.397 20.053.231 45.761-.856 69.729 17.008 84.512 19.383 86.039c1.814.936 4.035.018 5.097-.841 8.609-6.207 20.387-22.758 16.578-46.136" fill="#10aa50"/><path d="M21.304 73.272c-.448 5.935-.771 9.389-1.911 12.774 0 0 .752 5.648 1.274 11.632h1.863a113.94 113.94 0 0 1 2.032-12.531c-2.412-1.242-3.166-6.669-3.258-11.875z" fill="#b8c4c2"/><path d="M24.559 85.151c-2.438-1.182-3.143-6.718-3.251-11.88a255.32 255.32 0 0 0 .52-25.576c-.127-4.475.064-41.454-1.049-46.867.45 1.059 1.538 3.547 2.625 5.324 2.597 4.261 12.782 10.285 17.663 32.912 3.803 23.318-7.904 39.839-16.507 46.087z" fill="#12924f"/></svg>