<svg xmlns="http://www.w3.org/2000/svg" width="97" height="100" fill="none" xmlns:v="https://vecta.io/nano"><g clip-path="url(#A)"><path d="M96.242 83.333c0 9.167-7.218 16.667-16.04 16.667H16.04C7.218 100 0 92.5 0 83.333V16.667C0 7.5 7.218 0 16.04 0h64.161c8.822 0 16.04 7.5 16.04 16.667v66.667z" fill="#563d7c"/><path d="M26.152 21.732h27.284c5.032 0 9.074 1.193 12.109 3.595s4.56 6.013 4.56 10.866c0 2.941-.692 5.457-2.076 7.549s-3.365 3.725-5.944 4.869v.163c3.46.768 6.086 2.467 7.863 5.098 1.777 2.647 2.673 5.948 2.673 9.935 0 2.288-.393 4.428-1.18 6.405-.786 1.993-2.013 3.709-3.695 5.147s-3.821 2.582-6.448 3.431-5.74 1.275-9.357 1.275h-25.79V21.732zM35.98 46.16h16.04c2.359 0 4.325-.686 5.897-2.092s2.359-3.399 2.359-6.013c0-2.941-.708-5.016-2.123-6.209s-3.46-1.797-6.133-1.797H35.98V46.16zm0 25.572h17.377c2.988 0 5.315-.801 6.951-2.418 1.651-1.601 2.485-3.889 2.485-6.83 0-2.892-.818-5.098-2.485-6.667s-3.963-2.32-6.951-2.32H35.98v18.235z" fill="#fff"/></g><defs><clipPath id="A"><path fill="#fff" d="M0 0h96.242v100H0z"/></clipPath></defs></svg>