<svg xmlns="http://www.w3.org/2000/svg" width="70" height="100" fill="none" xmlns:v="https://vecta.io/nano"><g clip-path="url(#A)"><path d="M17.375 100c9.588 0 17.369-7.466 17.369-16.666V66.667H17.375C7.787 66.667.006 74.134.006 83.334S7.787 100 17.375 100z" fill="#0acf83"/><path d="M.006 50c0-9.2 7.781-16.667 17.369-16.667h17.369v33.333H17.375C7.787 66.667.006 59.2.006 50z" fill="#a259ff"/><path d="M.004 16.667C.004 7.467 7.785 0 17.373 0h17.369v33.333H17.373C7.785 33.333.004 25.867.004 16.667z" fill="#f24e1e"/><path d="M34.746 0h17.369c9.588 0 17.369 7.467 17.369 16.667s-7.782 16.667-17.369 16.667H34.746V0z" fill="#ff7262"/><path d="M69.485 50c0 9.2-7.782 16.667-17.369 16.667S34.746 59.2 34.746 50s7.781-16.667 17.369-16.667S69.485 40.8 69.485 50z" fill="#1abcfe"/></g><defs><clipPath id="A"><path fill="#fff" d="M0 0h69.492v100H0z"/></clipPath></defs></svg>