<svg xmlns="http://www.w3.org/2000/svg" width="97" height="100" fill="none" xmlns:v="https://vecta.io/nano"><path d="M0 0H96.242V100H0V0Z" fill="#f7df1e"/><path d="M25.306 83.567l7.365-4.631c1.421 2.618 2.713 4.832 5.814 4.832 2.972 0 4.846-1.208 4.846-5.906V45.91h9.044v32.085c0 9.733-5.491 14.164-13.502 14.164-7.235 0-11.435-3.893-13.567-8.592m31.981-1.007l7.364-4.43c1.939 3.29 4.458 5.706 8.916 5.706 3.747 0 6.137-1.947 6.137-4.632 0-3.222-2.455-4.363-6.59-6.242l-2.26-1.008C64.328 69.068 60 65.444 60 57.791c0-7.048 5.168-12.419 13.244-12.419 5.75 0 9.884 2.081 12.856 7.518l-7.042 4.699c-1.551-2.886-3.23-4.027-5.814-4.027-2.649 0-4.329 1.745-4.329 4.027 0 2.819 1.68 3.961 5.556 5.706l2.261 1.007c7.688 3.424 12.016 6.914 12.016 14.767 0 8.458-6.396 13.09-14.988 13.09-8.398 0-13.825-4.162-16.473-9.599" fill="#000"/></svg>