<svg xmlns="http://www.w3.org/2000/svg" width="100" height="100" fill="none" xmlns:v="https://vecta.io/nano"><path d="M0 50v50h50 50V50 0H50 0v50z" fill="#007acc"/><path d="M22.113 50.332l-.032 4.095h6.508 6.508v18.492 18.492H39.7h4.603V72.919 54.427h6.508 6.508v-4.016l-.111-4.127c-.048-.063-7.968-.095-17.571-.079l-17.476.048-.048 4.079zm58.578-4.196c2.54.635 4.476 1.762 6.254 3.603.921.984 2.286 2.778 2.397 3.206.032.127-4.317 3.048-6.952 4.682-.095.063-.476-.349-.905-.984-1.286-1.873-2.635-2.683-4.698-2.825-3.032-.206-4.984 1.381-4.968 4.032 0 .778.111 1.238.429 1.873.667 1.381 1.905 2.206 5.794 3.889 7.159 3.079 10.222 5.111 12.127 8 2.127 3.222 2.603 8.365 1.159 12.19-1.587 4.159-5.524 6.984-11.064 7.921-1.714.302-5.778.254-7.619-.079-4.016-.714-7.825-2.698-10.175-5.302-.921-1.016-2.714-3.667-2.603-3.857.048-.064.46-.317.921-.587l3.714-2.143 2.873-1.667.603.889c.841 1.286 2.683 3.048 3.794 3.635 3.191 1.683 7.571 1.444 9.73-.492.921-.841 1.302-1.714 1.302-3 0-1.159-.143-1.667-.746-2.54-.778-1.111-2.365-2.048-6.873-4-5.159-2.222-7.381-3.603-9.413-5.794-1.175-1.27-2.286-3.302-2.746-5-.381-1.413-.476-4.952-.175-6.381 1.063-4.984 4.825-8.46 10.254-9.492 1.762-.333 5.857-.206 7.587.222z" fill="#fff"/></svg>