<?xml version="1.0" encoding="utf-8"?>
<!-- Generator: Adobe Illustrator 25.4.1, SVG Export Plug-In . SVG Version: 6.00 Build 0)  -->
<svg version="1.1" id="Layer_1" xmlns="http://www.w3.org/2000/svg" xmlns:xlink="http://www.w3.org/1999/xlink" x="0px" y="0px"
	 viewBox="0 0 700 700" style="enable-background:new 0 0 700 700;" xml:space="preserve">
<g>
	<path d="M178,255.9l-35.5-35.3c-6.6-6.6-17.3-6.4-23.9,0.2c-6.6,6.6-6.6,17.4,0,24l40.5,38.1c3.2,3.2,7.5,2.4,12,2.4h33
		c-23.5,29.4-38.9,64.8-44.6,100.1l-57.5,0c-9.3,0-16.9,8.3-16.9,17.7c0,9.3,7.6,17.7,16.9,17.7h55c0.3,29.4,7.7,58.9,20.7,82.4
		h-12.3c-4.5,0-8.8,2.6-12,5.8l-40.5,41c-6.6,6.6-6.6,17.5,0,24.1c3.3,3.3,7.6,5,11.9,5c4.3,0,8.7-1.6,12-5l35.6-35.6h27.3
		c33.3,41.2,85.5,68,138.5,71V255.9L178,255.9z"/>
	<path d="M598.1,385.4h-58.7c-7.3-35.3-26.1-70.7-48.1-100.1H529c4.5,0,8.8,0.8,12-2.4l40.5-39.3c6.6-6.6,6.6-16.7,0-23.3
		c-6.6-6.6-17.3-6.7-23.9,0L522,255.9H361.8v353.5c53-3.4,104.3-35.5,137.6-70.9h28.3l35.6,35.7c3.3,3.3,7.6,5,12,5
		c4.3,0,8.6-1.6,11.9-4.9c6.6-6.6,6.6-17.3,0-23.9l-40.5-41.4c-3.2-3.2-7.5-5.7-12-5.7h-13c13.2-23.6,20.7-53,21-82.4h55.4
		c9.3,0,16.9-8.3,16.9-17.7C615,393.7,607.4,385.4,598.1,385.4L598.1,385.4z"/>
	<path d="M240.6,232.3h218.8c0-41.2-20.5-72.2-51.2-91.6l22.1-21.6c6.6-6.6,6.6-17.1,0-23.7c-6.6-6.6-17.3-6.5-23.9,0.1l-31.9,32
		c-7.9-1.8-16.1-2.8-24.5-2.8c-8.4,0-16.6,1.1-24.5,2.9l-31.9-31.9c-6.6-6.6-17.3-6.6-23.9,0s-6.6,17.3,0,23.9l22.1,21.2
		C261,160.1,240.6,191.1,240.6,232.3L240.6,232.3z"/>
</g>
</svg>
